<svg width="14" height="14" viewBox="0 0 14 14" fill="none" xmlns="http://www.w3.org/2000/svg">
<path d="M0.792893 11.7929C0.402369 12.1834 0.402369 12.8166 0.792893 13.2071C1.18342 13.5976 1.81658 13.5976 2.20711 13.2071L0.792893 11.7929ZM13.5 1.5C13.5 0.947716 13.0523 0.5 12.5 0.5L3.5 0.5C2.94771 0.5 2.5 0.947716 2.5 1.5C2.5 2.05229 2.94771 2.5 3.5 2.5H11.5V10.5C11.5 11.0523 11.9477 11.5 12.5 11.5C13.0523 11.5 13.5 11.0523 13.5 10.5L13.5 1.5ZM2.20711 13.2071L13.2071 2.20711L11.7929 0.792894L0.792893 11.7929L2.20711 13.2071Z" fill="white"/>
</svg>
