<svg width="992" height="400" viewBox="0 0 992 400" fill="none" xmlns="http://www.w3.org/2000/svg">
<path d="M317.813 183.959C317.694 186.185 317.184 188.3 316.35 190.237L315.848 191.315L314.556 194.093L313.391 196.6L293.107 240.174L292.984 240.433L292.962 240.485C292.709 241.096 292.552 241.756 292.515 242.452C292.508 242.559 292.508 242.663 292.508 242.77V267.437H292.504C292.504 267.689 292.5 267.944 292.485 268.2C292.444 268.948 292.348 269.681 292.195 270.393C291.227 274.941 288.078 278.644 283.931 280.467C281.914 281.352 279.654 281.793 277.301 281.667C275.407 281.567 273.616 281.107 271.993 280.363C268.371 278.704 265.587 275.611 264.336 271.867C263.934 270.656 263.692 269.374 263.636 268.048V241.667C263.636 240.819 263.659 239.967 263.703 239.107C263.789 237.504 263.953 235.926 264.195 234.37C264.839 230.204 266.026 226.226 267.679 222.504L268.341 221.089L278.627 198.993L278.619 198.989C278.902 198.404 279.073 197.752 279.111 197.063C279.256 194.385 277.305 192.074 274.673 191.678L274.413 191.644H274.409L272.801 191.441L173.262 178.8L152.863 176.211L152.629 176.181C143.289 174.952 136.093 167.496 135.185 158.367C134.913 155.507 134.776 152.611 134.776 149.689C134.776 98.7629 176.27 57.4814 227.454 57.4814C270.169 57.4814 306.136 86.2333 316.864 125.348C317.087 126.163 317.299 126.981 317.5 127.804C317.642 128.622 317.716 129.467 317.716 130.33C317.716 138.585 310.99 145.281 302.689 145.281C295.724 145.281 289.861 140.559 288.16 134.159C288.119 133.985 288.074 133.811 288.03 133.641C281.232 106.789 256.794 86.9111 227.7 86.9111C196.49 86.9111 170.645 109.778 166.175 139.596C166.145 139.774 166.119 139.952 166.093 140.133C166.078 140.252 166.059 140.37 166.044 140.493C166.033 140.607 166.026 140.722 166.018 140.837C165.84 144.181 168.088 147.096 171.245 147.926L173.091 148.159L173.754 148.244L288.324 162.793L301.259 164.433L301.423 164.456C308.239 165.348 313.837 169.793 316.372 175.756C317.441 178.27 317.966 181.056 317.813 183.959Z" fill="#06A6FF"/>
<path d="M233.339 40.0777C233.313 40.5814 232.878 40.9703 232.368 40.9407C230.603 40.8666 228.828 40.8296 227.044 40.8296C158.257 40.8296 102.491 96.3148 102.491 164.755C102.491 216.596 134.478 261.004 179.892 279.496C180.234 279.644 180.465 279.989 180.439 280.378C180.413 280.881 179.978 281.27 179.468 281.241C179.438 281.241 179.408 281.237 179.378 281.233C179.378 281.233 179.378 281.233 179.375 281.233C179.326 281.222 179.278 281.211 179.229 281.2C179.222 281.196 179.211 281.193 179.2 281.189C124.785 267.918 84.4144 219.067 84.4144 160.833C84.4144 92.3925 140.181 36.9073 208.968 36.9073C217.031 36.9073 224.919 37.674 232.554 39.1296C233 39.1925 233.339 39.6259 233.339 40.0777Z" fill="#FCF300"/>
<path d="M207.624 314.17C203.902 314.17 200.403 311.881 199.055 308.2C197.332 303.492 199.774 298.285 204.505 296.574L246.788 281.263C251.52 279.548 256.753 281.978 258.473 286.685C260.197 291.392 257.755 296.6 253.023 298.311L210.74 313.622C209.713 313.996 208.659 314.17 207.624 314.17Z" fill="white"/>
<path d="M229.542 363.096C225.82 363.096 222.321 360.807 220.973 357.126C219.25 352.418 221.691 347.211 226.423 345.5L268.706 330.189C273.437 328.474 278.671 330.904 280.391 335.611C282.115 340.318 279.673 345.526 274.941 347.237L232.658 362.548C231.63 362.918 230.577 363.096 229.542 363.096Z" fill="white"/>
<path d="M212.326 340.863C208.603 340.863 205.104 338.574 203.757 334.892C202.033 330.185 204.475 324.978 209.206 323.267L273.508 299.981C278.24 298.267 283.473 300.696 285.193 305.404C286.917 310.111 284.475 315.318 279.743 317.029L215.442 340.315C214.414 340.685 213.361 340.863 212.326 340.863Z" fill="white"/>
<path d="M344.506 89.9038C344.506 79.9864 347.598 71.6053 353.783 64.7655C359.635 58.2655 367.042 54.5034 376.006 53.4792C377.489 53.3314 378.977 53.2576 380.466 53.2576C389.386 53.2576 397.175 56.1875 403.838 62.0523C404.747 62.8352 405.612 63.6625 406.428 64.5439C408.202 66.4496 408.68 68.6754 407.868 71.2114C407.342 72.7773 406.428 73.9985 405.133 74.875H405.061C402.901 76.2932 400.698 76.3917 398.446 75.1704C397.677 74.7322 397.03 74.2151 396.503 73.6292C392.333 68.7936 386.984 66.3708 380.466 66.3708C373.609 66.3708 367.975 68.764 363.563 73.5553C359.485 78.0511 357.451 83.4973 357.451 89.8988C357.451 96.5958 359.678 102.19 364.138 106.681C368.55 111.029 373.894 113.205 380.176 113.205C387.366 113.205 393.121 110.325 397.436 104.558C398.968 102.554 400.983 101.727 403.476 102.067C404.293 102.165 405.056 102.411 405.776 102.8C406.303 103.047 406.771 103.377 407.177 103.79C407.583 104.204 407.931 104.647 408.221 105.11C408.511 105.573 408.748 106.075 408.941 106.612C409.134 107.148 409.241 107.7 409.265 108.261C409.289 108.823 409.265 109.374 409.192 109.911C409.12 110.448 408.965 110.984 408.724 111.521C408.482 112.058 408.173 112.57 407.786 113.062C402.224 120.001 395.295 124.275 386.999 125.89C384.839 126.328 382.659 126.55 380.456 126.55C370.289 126.55 361.853 123.251 355.141 116.657C348.956 110.502 345.458 102.781 344.641 93.4985C344.549 92.2773 344.506 91.0807 344.506 89.9038Z" fill="white"/>
<path d="M426.926 53.3314C429.226 53.3314 430.956 54.331 432.106 56.3352C432.681 57.3595 432.971 58.4132 432.971 59.4867V120.395C432.971 122.739 431.99 124.502 430.023 125.673C429.062 126.259 428.032 126.555 426.931 126.555C424.674 126.555 422.949 125.555 421.751 123.551C421.224 122.571 420.958 121.522 420.958 120.4V59.4867C420.958 57.1428 421.939 55.3848 423.906 54.2079C424.863 53.6761 425.872 53.3807 426.926 53.3314Z" fill="white"/>
<path d="M485.109 125.309C484.055 125.309 483.383 124.822 483.094 123.842C482.997 123.595 482.949 123.354 482.949 123.108V120.838C482.949 120.35 482.707 120.104 482.229 120.104C481.987 120.055 481.774 120.129 481.581 120.326C477.744 124.433 472.734 126.506 466.549 126.555C458.015 126.555 451.85 123.305 448.066 116.805C445.718 112.698 444.543 107.641 444.543 101.633V73.7818C444.543 71.2901 445.597 69.3845 447.708 68.0648C448.762 67.4295 449.912 67.0898 451.159 67.0405H451.303C453.797 67.0405 455.691 68.114 456.986 70.2659C457.609 71.3886 457.923 72.5655 457.923 73.7818V100.24C457.923 108.301 460.774 113.043 466.481 114.461C467.631 114.756 468.853 114.899 470.148 114.899C474.99 114.899 478.537 112.772 480.793 108.522C482.185 105.932 482.881 102.781 482.881 99.0678V73.7818C482.881 71.2901 483.91 69.3845 485.973 68.0648C487.075 67.4295 488.225 67.0898 489.424 67.0405C491.917 67.0405 493.811 68.114 495.106 70.2659C495.729 71.3886 496.039 72.5655 496.039 73.7818V114.166C496.039 117.829 494.623 120.784 491.796 123.034C489.786 124.551 487.554 125.309 485.109 125.309Z" fill="white"/>
<path d="M521.001 120.252C521.001 122.256 520.136 123.743 518.411 124.723C517.643 125.112 516.826 125.334 515.966 125.383H513.231C511.216 125.383 509.752 124.477 508.844 122.67C508.414 121.887 508.196 121.079 508.196 120.252V59.8561C508.196 57.4136 509.225 55.5572 511.289 54.2868C512.342 53.6515 513.468 53.3118 514.671 53.2625C517.068 53.2625 518.889 54.3114 520.136 56.414C520.759 57.4875 521.073 58.6398 521.073 59.861V73.3485C521.073 73.8852 521.334 74.1807 521.866 74.2299C522.156 74.1807 522.368 74.0822 522.513 73.9345C526.587 69.7341 531.767 67.5083 538.048 67.2671C538.43 67.2178 538.817 67.1932 539.198 67.1932C546.2 67.1932 552.264 69.5371 557.396 74.2299C563.436 80.1932 566.529 87.7667 566.673 96.9504C566.673 105.942 563.726 113.269 557.826 118.937C552.936 123.63 547.205 126.146 540.638 126.486C540.208 126.535 539.773 126.56 539.343 126.56C532.39 126.511 526.756 124.216 522.441 119.671C522.011 119.233 521.6 119.233 521.218 119.671C521.069 119.858 521.001 120.055 521.001 120.252ZM553.941 96.7239C553.941 91.3515 552.047 86.9296 548.259 83.458C545.045 80.528 541.209 79.1099 536.749 79.2083C531.859 79.3068 527.78 81.3356 524.524 85.2898C521.885 88.6137 520.542 92.3758 520.494 96.5761C520.494 102.047 522.339 106.543 526.031 110.064C529.148 112.944 532.864 114.412 537.179 114.461C541.875 114.461 545.847 112.752 549.08 109.33C552.322 105.908 553.941 101.707 553.941 96.7239Z" fill="white"/>
<path d="M346.95 219.337L348.173 218.313C350.14 216.752 352.246 216.481 354.503 217.506C355.319 217.85 356.015 218.313 356.59 218.899C359.944 222.272 363.925 223.956 368.53 223.956C372.942 223.956 376.059 222.366 377.88 219.19C378.745 217.722 379.175 216.137 379.175 214.423C379.175 211.345 377.064 208.878 372.845 207.022C371.405 206.387 368.651 205.436 364.573 204.166C358.436 202.112 354.097 200.133 351.555 198.227C347.047 194.81 344.771 190.019 344.723 183.863C344.723 177.949 346.999 173.04 351.555 169.13C356.015 165.319 361.48 163.413 367.955 163.413C374.522 163.462 380.18 165.053 384.93 168.175C386.945 169.494 387.878 171.4 387.733 173.892C387.54 175.847 386.704 177.408 385.215 178.584C383.249 180.101 381.137 180.342 378.885 179.318C378.359 179.023 377.904 178.732 377.518 178.437C374.928 176.334 371.763 175.261 368.023 175.211C363.418 175.211 360.398 176.802 358.963 179.978C358.533 181.002 358.291 182.13 358.243 183.351C358.243 186.138 360.04 188.384 363.635 190.092C364.785 190.678 367.757 191.776 372.555 193.392C379.315 195.642 384.133 198.06 387.013 200.65C390.85 204.22 392.768 208.834 392.768 214.502C392.768 220.416 390.705 225.473 386.583 229.673C381.978 234.317 375.986 236.661 368.603 236.71C360.306 236.661 353.092 234.219 346.955 229.383C345.037 227.817 344.269 225.818 344.655 223.375C344.935 221.711 345.699 220.367 346.95 219.337Z" fill="white"/>
<path d="M406.718 201.822C407.868 194.593 411.275 188.63 416.933 183.937C422.543 179.343 428.897 177.097 435.991 177.196C444.094 177.344 450.854 180.249 456.271 185.917C456.894 186.552 457.469 187.212 457.996 187.896C459.576 189.851 459.89 192.003 458.928 194.347C458.257 195.913 457.179 197.011 455.691 197.646L455.474 197.794C453.222 198.774 451.11 198.429 449.144 196.77C448.757 196.43 448.424 196.085 448.138 195.745C444.925 191.688 440.731 189.664 435.551 189.664C430.758 189.615 426.704 191.422 423.398 195.086C421.19 197.577 419.803 200.438 419.228 203.664C418.267 209.135 419.422 213.926 422.678 218.028C426.129 222.085 430.444 224.158 435.623 224.257C440.895 224.257 445.118 222.154 448.283 217.954C449.815 215.95 451.758 215.098 454.111 215.388C454.686 215.487 455.237 215.634 455.763 215.827L455.981 215.974C458.141 216.905 459.363 218.54 459.648 220.884C459.89 222.592 459.503 224.134 458.498 225.503C453.512 232.145 446.8 235.839 438.358 236.572C437.353 236.671 436.368 236.72 435.411 236.72C427.597 236.72 420.905 234.031 415.343 228.659C409.975 223.479 406.974 217.102 406.351 209.528C406.167 206.978 406.283 204.412 406.718 201.822Z" fill="white"/>
<path d="M477.271 183.351C479.571 183.351 481.301 184.351 482.451 186.355C483.026 187.379 483.316 188.433 483.316 189.506V230.55C483.316 232.894 482.335 234.657 480.368 235.829C479.407 236.415 478.378 236.71 477.276 236.71C475.024 236.71 473.294 235.711 472.096 233.706C471.569 232.726 471.303 231.678 471.303 230.555V189.511C471.303 187.167 472.284 185.405 474.251 184.233C475.208 183.691 476.218 183.4 477.271 183.351ZM471.516 169.499C471.516 167.205 472.473 165.442 474.391 164.22C475.396 163.634 476.454 163.339 477.556 163.339C479.808 163.339 481.538 164.319 482.736 166.269C483.311 167.293 483.601 168.372 483.601 169.494C483.601 171.794 482.639 173.552 480.726 174.773C479.721 175.359 478.663 175.655 477.561 175.655C475.304 175.655 473.579 174.68 472.381 172.725C471.806 171.695 471.516 170.622 471.516 169.499Z" fill="white"/>
<path d="M494.961 206.072C495.154 198.109 497.933 191.314 503.306 185.695C508.529 180.224 514.932 177.24 522.509 176.753C523.562 176.703 524.615 176.679 525.674 176.679C533.825 177.024 540.513 180.027 545.741 185.695C550.873 191.314 553.439 198.203 553.439 206.362V206.948C553.439 208.805 552.622 210.124 550.994 210.907C550.37 211.203 549.747 211.346 549.124 211.346H509.278C508.51 211.346 508.056 211.739 507.911 212.517C507.863 212.813 507.887 213.054 507.983 213.251C509.709 218.53 513.067 222.071 518.053 223.878C520.165 224.611 522.417 224.976 524.813 224.976C530.327 224.927 534.714 222.947 537.976 219.037C539.416 217.23 541.31 216.57 543.658 217.058C544.378 217.205 545.002 217.452 545.528 217.791C547.592 218.963 548.597 220.746 548.549 223.144C548.5 224.754 547.998 226.148 547.036 227.32C541.426 233.524 534.019 236.651 524.813 236.7C518.918 236.7 513.651 235.331 509.027 232.594C504.398 229.856 500.866 226.153 498.421 221.489C495.971 216.836 494.821 211.69 494.961 206.072ZM510.211 200.207H538.261C539.078 200.207 539.556 199.818 539.701 199.035C539.701 198.789 539.677 198.547 539.629 198.301C537.517 192.486 533.25 189.236 526.828 188.551C526.012 188.453 525.2 188.403 524.383 188.403C518.773 188.403 514.313 190.531 511.003 194.78C510.187 195.854 509.491 197.006 508.916 198.227C508.534 199.01 508.723 199.621 509.491 200.059C509.733 200.163 509.969 200.207 510.211 200.207Z" fill="white"/>
<path d="M574.149 178.442H575.444C576.739 178.442 577.604 179.052 578.034 180.273C578.13 180.569 578.179 180.859 578.179 181.155V183.72C578.179 184.208 578.42 184.43 578.899 184.38C579.092 184.331 579.232 184.257 579.329 184.159C583.499 179.564 588.824 177.245 595.294 177.196C604.547 177.196 611.046 180.692 614.786 187.675C616.893 191.634 617.951 196.445 617.951 202.112V229.964C617.951 232.456 616.922 234.361 614.859 235.681C613.757 236.316 612.607 236.656 611.409 236.705H611.191C608.746 236.705 606.876 235.632 605.581 233.48C604.91 232.357 604.576 231.185 604.576 229.964V203.506C604.576 196.179 601.986 191.584 596.811 189.728C595.274 189.142 593.574 188.847 591.704 188.847C586.862 188.847 583.218 190.851 580.773 194.859C579.145 197.548 578.304 200.822 578.256 204.683V229.969C578.256 232.461 577.222 234.366 575.163 235.686C574.062 236.321 572.907 236.661 571.713 236.71C569.268 236.71 567.398 235.637 566.103 233.485C565.432 232.362 565.098 231.19 565.098 229.969V187.68C565.098 184.454 566.393 181.938 568.983 180.131C570.554 179.003 572.279 178.442 574.149 178.442Z" fill="white"/>
<path d="M635.931 179.175H638.594C639.265 178.978 639.647 178.589 639.744 178.003V172.946C639.792 171.237 640.488 169.893 641.831 168.913L649.021 163.93C650.075 163.196 651.085 163.27 652.041 164.151C652.568 164.688 652.858 165.323 652.906 166.057V178.003C652.906 178.639 653.196 179.003 653.771 179.101C653.868 179.101 653.964 179.126 654.056 179.175H658.516C660.768 179.175 662.474 180.155 663.624 182.105C664.102 183.036 664.368 184.036 664.416 185.109C664.416 187.359 663.43 189.068 661.469 190.24C660.555 190.777 659.574 191.048 658.521 191.048H654.061C653.389 191.195 653.008 191.584 652.911 192.22V212.596C652.911 217.387 653.486 220.465 654.636 221.829C655.308 222.661 656.24 223.247 657.439 223.587C660.362 224.419 662.425 226.3 663.624 229.23C664.102 230.451 664.368 231.722 664.416 233.042V236.705H662.546C654.061 236.705 648.185 235.105 644.924 231.904C641.662 228.703 639.937 222.903 639.744 214.497C639.744 213.862 639.744 213.251 639.744 212.665V192.215C639.599 191.58 639.217 191.191 638.594 191.043H635.931C633.723 191.043 632.046 190.068 630.896 188.113C630.37 187.138 630.104 186.133 630.104 185.109C630.104 182.814 631.06 181.101 632.979 179.978C633.94 179.441 634.921 179.175 635.931 179.175Z" fill="white"/>
<path d="M682.604 183.351C684.904 183.351 686.634 184.351 687.784 186.355C688.359 187.379 688.649 188.433 688.649 189.506V230.55C688.649 232.894 687.668 234.657 685.701 235.829C684.74 236.415 683.711 236.71 682.609 236.71C680.352 236.71 678.627 235.711 677.429 233.706C676.902 232.726 676.636 231.678 676.636 230.555V189.511C676.636 187.167 677.617 185.405 679.584 184.233C680.546 183.691 681.551 183.4 682.604 183.351ZM676.854 169.499C676.854 167.205 677.811 165.442 679.729 164.22C680.734 163.634 681.792 163.339 682.894 163.339C685.146 163.339 686.875 164.319 688.074 166.269C688.649 167.293 688.939 168.372 688.939 169.494C688.939 171.794 687.977 173.552 686.064 174.773C685.059 175.359 684 175.655 682.899 175.655C680.642 175.655 678.917 174.68 677.719 172.725C677.139 171.695 676.854 170.622 676.854 169.499Z" fill="white"/>
<path d="M700.226 188.408C700.226 186.256 701.159 184.671 703.029 183.642C703.845 183.253 704.681 183.056 705.546 183.056H708.929V182.908C708.929 174.261 711.132 168.372 715.544 165.245C718.897 162.901 723.86 161.729 730.431 161.729H731.436V169.79C731.436 171.257 730.789 172.257 729.494 172.794C729.156 172.892 728.822 172.966 728.489 173.015C724.942 173.261 722.71 174.384 721.801 176.388C721.275 177.609 720.985 179.367 720.936 181.667C720.936 182.45 721.294 182.888 722.014 182.987C722.111 183.036 722.183 183.061 722.231 183.061H726.116C728.228 183.061 729.784 183.991 730.794 185.848C731.224 186.68 731.441 187.532 731.441 188.413C731.441 190.565 730.509 192.151 728.639 193.175C727.87 193.613 727.03 193.835 726.121 193.835H722.236C721.468 193.983 721.038 194.421 720.941 195.155V230.555C720.941 232.899 719.96 234.662 717.994 235.834C716.989 236.42 715.955 236.715 714.901 236.715C712.645 236.715 710.92 235.716 709.721 233.711C709.195 232.731 708.929 231.683 708.929 230.56V195.159C708.784 194.426 708.354 193.987 707.634 193.84H705.546C703.435 193.84 701.879 192.884 700.869 190.984C700.439 190.191 700.226 189.339 700.226 188.408Z" fill="white"/>
<path d="M750.069 183.351C752.369 183.351 754.099 184.351 755.249 186.355C755.824 187.379 756.114 188.433 756.114 189.506V230.55C756.114 232.894 755.133 234.657 753.166 235.829C752.205 236.415 751.176 236.71 750.074 236.71C747.817 236.71 746.092 235.711 744.894 233.706C744.367 232.726 744.102 231.678 744.102 230.555V189.511C744.102 187.167 745.083 185.405 747.049 184.233C748.006 183.691 749.011 183.4 750.069 183.351ZM744.314 169.499C744.314 167.205 745.271 165.442 747.189 164.22C748.194 163.634 749.253 163.339 750.354 163.339C752.606 163.339 754.336 164.319 755.534 166.269C756.109 167.293 756.399 168.372 756.399 169.494C756.399 171.794 755.438 173.552 753.524 174.773C752.519 175.359 751.461 175.655 750.359 175.655C748.103 175.655 746.378 174.68 745.179 172.725C744.599 171.695 744.314 170.622 744.314 169.499Z" fill="white"/>
<path d="M813.432 183.573C813.432 181.569 814.297 180.081 816.022 179.102C816.838 178.713 817.65 178.491 818.467 178.442H821.202C823.216 178.442 824.7 179.348 825.661 181.155C826.043 181.938 826.237 182.745 826.237 183.573V247.632C826.237 250.075 825.202 251.956 823.144 253.275C822.091 253.861 820.96 254.181 819.762 254.231C817.365 254.231 815.543 253.177 814.296 251.079C813.673 250.006 813.364 248.853 813.364 247.632V230.481C813.364 229.944 813.098 229.649 812.571 229.6C812.282 229.649 812.069 229.747 811.924 229.895C807.846 234.095 802.671 236.321 796.389 236.567C796.007 236.617 795.645 236.641 795.311 236.641C788.261 236.641 782.173 234.297 777.041 229.605C771.001 223.691 767.909 216.117 767.764 206.884C767.764 197.892 770.711 190.565 776.611 184.897C781.501 180.205 787.232 177.688 793.799 177.349C794.229 177.299 794.664 177.275 795.094 177.275C802.096 177.324 807.73 179.619 811.996 184.164C812.426 184.602 812.832 184.602 813.219 184.164C813.359 183.962 813.432 183.765 813.432 183.573ZM780.492 207.096C780.492 212.517 782.386 216.944 786.174 220.362C789.436 223.292 793.267 224.71 797.679 224.611C802.569 224.513 806.643 222.484 809.904 218.53C812.542 215.206 813.886 211.444 813.934 207.244C813.934 201.773 812.088 197.277 808.397 193.756C805.28 190.875 801.588 189.408 797.322 189.359C792.142 189.359 787.899 191.338 784.589 195.297C781.854 198.671 780.492 202.605 780.492 207.096Z" fill="white"/>
<path d="M879.239 235.464C878.186 235.464 877.514 234.977 877.224 233.997C877.128 233.751 877.079 233.509 877.079 233.263V230.993C877.079 230.506 876.838 230.259 876.359 230.259C876.118 230.21 875.905 230.284 875.712 230.481C871.875 234.588 866.864 236.661 860.679 236.71C852.146 236.71 845.98 233.46 842.197 226.96C839.848 222.853 838.674 217.796 838.674 211.789V183.937C838.674 181.445 839.728 179.54 841.839 178.22C842.893 177.585 844.043 177.245 845.289 177.196H845.434C847.928 177.196 849.822 178.269 851.117 180.421C851.74 181.544 852.049 182.721 852.049 183.937V210.395C852.049 218.456 854.9 223.198 860.607 224.616C861.757 224.907 862.98 225.055 864.274 225.055C869.116 225.055 872.663 222.927 874.92 218.678C876.311 216.087 877.007 212.936 877.007 209.223V183.937C877.007 181.445 878.036 179.54 880.099 178.22C881.201 177.585 882.351 177.245 883.55 177.196C886.043 177.196 887.937 178.269 889.232 180.421C889.855 181.544 890.165 182.721 890.165 183.937V224.321C890.165 227.984 888.749 230.939 885.922 233.189C883.912 234.706 881.684 235.464 879.239 235.464Z" fill="white"/>
<path d="M902.394 206.072C902.588 198.109 905.366 191.314 910.739 185.695C915.963 180.224 922.365 177.24 929.942 176.753C930.995 176.703 932.049 176.679 933.107 176.679C941.259 177.024 947.946 180.027 953.174 185.695C958.306 191.314 960.872 198.203 960.872 206.362V206.948C960.872 208.805 960.055 210.124 958.427 210.907C957.804 211.203 957.18 211.346 956.557 211.346H916.712C915.944 211.346 915.489 211.739 915.344 212.517C915.296 212.813 915.32 213.054 915.417 213.251C917.142 218.53 920.5 222.071 925.487 223.878C927.598 224.611 929.85 224.976 932.247 224.976C937.76 224.927 942.148 222.947 945.409 219.037C946.849 217.23 948.743 216.57 951.092 217.058C951.812 217.205 952.435 217.452 952.962 217.791C955.025 218.963 956.03 220.746 955.982 223.144C955.934 224.754 955.431 226.148 954.469 227.32C948.859 233.524 941.452 236.651 932.247 236.7C926.352 236.7 921.085 235.331 916.461 232.594C911.831 229.856 908.299 226.153 905.854 221.489C903.404 216.836 902.254 211.69 902.394 206.072ZM917.644 200.207H945.694C946.511 200.207 946.989 199.818 947.134 199.035C947.134 198.789 947.11 198.547 947.062 198.301C944.95 192.486 940.684 189.236 934.262 188.551C933.445 188.453 932.633 188.403 931.817 188.403C926.207 188.403 921.747 190.531 918.437 194.78C917.62 195.854 916.924 197.006 916.349 198.227C915.968 199.01 916.156 199.621 916.924 200.059C917.166 200.163 917.403 200.207 917.644 200.207Z" fill="white"/>
<path d="M344.506 317.256C344.506 307.974 347.526 300.519 353.566 294.9C358.934 290.114 365.143 287.671 372.193 287.573C378.808 287.622 384.278 289.725 388.593 293.876C389.023 294.314 389.429 294.289 389.816 293.802C389.961 293.605 390.033 293.437 390.033 293.29V280.245C390.033 277.803 391.062 275.947 393.126 274.676C394.179 274.041 395.305 273.726 396.508 273.726H396.581C398.977 273.726 400.823 274.75 402.118 276.803C402.693 277.926 403.002 279.073 403.051 280.25V339.105C403.051 341.547 402.021 343.428 399.958 344.748C398.905 345.383 397.774 345.698 396.576 345.698C394.179 345.698 392.357 344.645 391.111 342.547C390.487 341.473 390.173 340.321 390.173 339.1C390.173 338.854 390.053 338.755 389.816 338.805C389.719 338.854 389.647 338.903 389.598 338.952C385.858 343.448 380.896 346.038 374.711 346.723C373.797 346.821 372.889 346.87 371.976 346.87C365.404 346.87 359.557 344.645 354.426 340.198C348.386 334.969 345.1 328.055 344.573 319.457C344.525 318.719 344.506 317.985 344.506 317.256ZM390.821 317.62C390.966 312.199 389.212 307.703 385.568 304.133C382.355 301.104 378.518 299.588 374.058 299.588C368.878 299.588 364.636 301.567 361.326 305.526C358.591 308.801 357.228 312.662 357.228 317.108C357.228 322.53 359.098 326.976 362.838 330.448C366.052 333.329 369.84 334.772 374.203 334.772C379.093 334.772 383.196 332.817 386.501 328.907C389.241 325.637 390.676 321.87 390.821 317.62Z" fill="white"/>
<path d="M415.348 316.227C415.542 308.264 418.32 301.469 423.693 295.85C428.917 290.38 435.319 287.395 442.896 286.908C443.949 286.859 445.007 286.834 446.061 286.834C454.212 287.179 460.9 290.183 466.128 295.85C471.26 301.469 473.826 308.358 473.826 316.517V317.103C473.826 318.96 473.009 320.28 471.381 321.063C470.757 321.358 470.134 321.501 469.511 321.501H429.661C428.892 321.501 428.438 321.895 428.293 322.673C428.245 322.968 428.269 323.209 428.366 323.406C430.091 328.685 433.449 332.226 438.436 334.033C440.547 334.767 442.799 335.131 445.196 335.131C450.709 335.082 455.097 333.102 458.358 329.192C459.798 327.385 461.692 326.725 464.041 327.213C464.761 327.361 465.384 327.607 465.911 327.947C467.974 329.119 468.979 330.901 468.931 333.299C468.882 334.91 468.38 336.303 467.418 337.475C461.808 343.68 454.401 346.806 445.196 346.856C439.296 346.856 434.034 345.487 429.409 342.749C424.78 340.011 421.248 336.308 418.803 331.645C416.353 326.991 415.203 321.845 415.348 316.227ZM430.593 310.362H458.643C459.46 310.362 459.938 309.973 460.083 309.19C460.083 308.949 460.059 308.703 460.011 308.456C457.899 302.641 453.633 299.396 447.211 298.706C446.394 298.608 445.582 298.559 444.766 298.559C439.156 298.559 434.696 300.686 431.391 304.936C430.574 306.009 429.878 307.161 429.303 308.383C428.917 309.166 429.11 309.776 429.878 310.214C430.115 310.318 430.352 310.362 430.593 310.362Z" fill="white"/>
<path d="M514.164 273.642C516.464 273.642 518.194 274.642 519.344 276.646C519.919 277.67 520.209 278.724 520.209 279.797V340.705C520.209 343.049 519.228 344.812 517.261 345.984C516.299 346.57 515.27 346.866 514.168 346.866C511.917 346.866 510.187 345.866 508.989 343.862C508.462 342.882 508.196 341.833 508.196 340.71V279.802C508.196 277.458 509.177 275.695 511.144 274.524C512.105 273.987 513.11 273.691 514.164 273.642Z" fill="white"/>
<path d="M533.226 292.113C532.984 285.47 532.796 280.191 532.651 276.281C532.603 274.425 533.323 273.519 534.811 273.568L539.556 273.642C540.464 273.741 541.281 274.228 542.001 275.109C542.673 276.04 542.958 277.04 542.866 278.113L542.794 278.187V278.261V278.335V278.409V278.483V278.556V278.63V278.704V278.778L542.721 278.852V278.926V278.995V279.069V279.142V279.216V279.29V279.364V279.438L542.649 279.512V279.586V279.659V279.733V279.807V279.881V279.955V280.029V280.103V280.177L542.576 280.25V280.324V280.398V280.472V280.546V280.62V280.694V280.767V280.841L542.504 280.915V280.989V281.063V281.137V281.211V281.284V281.358V281.432V281.506L542.431 281.58V281.654V281.728V281.802V281.875V281.949V282.023V282.097V282.171L542.359 282.245V282.319V282.392V282.466V282.54V282.614V282.688V282.762V282.836L542.286 282.909V282.983V283.057V283.131V283.205V283.279V283.353V283.427V283.5V283.574L542.214 283.648V283.722V283.796V283.87V283.944V284.017V284.091V284.165V284.239L542.141 284.313V284.387C541.615 289.222 541.276 292.403 541.136 293.915C540.991 295.186 540.392 295.895 539.339 296.042C539.194 296.092 539.073 296.116 538.981 296.116L536.609 296.042C535.744 295.993 534.98 295.604 534.308 294.87C533.68 293.994 533.318 293.093 533.226 292.113Z" fill="white"/>
<path d="M556.816 273.568H589.901C592.298 273.568 594.12 274.592 595.366 276.646C595.99 277.719 596.304 278.872 596.304 280.093C596.304 282.535 595.299 284.392 593.284 285.662C592.23 286.297 591.1 286.612 589.901 286.612H569.906C568.611 286.612 567.722 287.223 567.244 288.444C567.099 288.838 567.026 289.203 567.026 289.542V300.612C567.026 301.932 567.65 302.838 568.896 303.325C569.23 303.424 569.568 303.473 569.901 303.473H589.896C592.293 303.473 594.115 304.497 595.361 306.551C595.985 307.624 596.299 308.776 596.299 309.993C596.299 312.435 595.294 314.292 593.279 315.562C592.226 316.197 591.095 316.517 589.896 316.517H569.901C568.606 316.517 567.717 317.153 567.239 318.423C567.094 318.768 567.022 319.108 567.022 319.447V330.881C567.022 332.201 567.645 333.102 568.892 333.595C569.225 333.742 569.563 333.816 569.897 333.816H589.892C592.288 333.816 594.11 334.84 595.357 336.894C595.98 337.967 596.294 339.115 596.294 340.341C596.294 342.734 595.289 344.59 593.274 345.91C592.221 346.496 591.09 346.816 589.892 346.865H556.807C555.415 346.865 554.434 346.206 553.859 344.886C553.714 344.448 553.642 344.029 553.642 343.64V276.794C553.642 275.375 554.289 274.376 555.584 273.79C555.975 273.642 556.381 273.568 556.816 273.568Z" fill="white"/>
<path d="M610.684 329.493L611.906 328.468C613.873 326.908 615.98 326.637 618.236 327.661C619.053 328.006 619.749 328.468 620.324 329.054C623.677 332.428 627.659 334.112 632.264 334.112C636.675 334.112 639.792 332.521 641.614 329.345C642.479 327.878 642.909 326.292 642.909 324.578C642.909 321.501 640.797 319.034 636.579 317.177C635.139 316.542 632.385 315.592 628.306 314.321C622.17 312.268 617.83 310.288 615.289 308.383C610.78 304.965 608.505 300.174 608.456 294.019C608.456 288.104 610.732 283.195 615.289 279.285C619.749 275.474 625.214 273.568 631.689 273.568C638.256 273.617 643.914 275.208 648.664 278.335C650.679 279.654 651.611 281.56 651.471 284.052C651.278 286.007 650.437 287.568 648.954 288.745C646.987 290.261 644.875 290.503 642.624 289.478C642.097 289.188 641.638 288.892 641.256 288.597C638.666 286.494 635.501 285.421 631.761 285.372C627.156 285.372 624.136 286.962 622.701 290.133C622.271 291.158 622.029 292.285 621.981 293.506C621.981 296.293 623.779 298.539 627.374 300.248C628.524 300.834 631.495 301.932 636.294 303.547C643.054 305.797 647.871 308.215 650.751 310.805C654.588 314.37 656.506 318.989 656.506 324.657C656.506 330.571 654.443 335.628 650.321 339.829C645.716 344.472 639.724 346.816 632.341 346.865C624.044 346.816 616.83 344.374 610.694 339.538C608.775 337.972 608.007 335.973 608.393 333.531C608.669 331.866 609.437 330.522 610.684 329.493Z" fill="white"/>
<path d="M676.636 273.568C679.13 273.568 681.024 274.642 682.319 276.794C682.991 277.916 683.324 279.113 683.324 280.383V340.045C683.324 342.537 682.295 344.467 680.231 345.836C679.081 346.472 677.883 346.811 676.636 346.861C674.191 346.861 672.297 345.787 670.954 343.635C670.282 342.512 669.949 341.316 669.949 340.045V280.388C669.949 277.897 671.002 275.966 673.114 274.597C674.216 273.913 675.39 273.568 676.636 273.568Z" fill="white"/>
</svg>
